<svg viewBox="0 0 800 800" xmlns="http://www.w3.org/2000/svg"><path d="M584.7786686385176,351.7276921994881 L575.5014461745839,349.19251632165276 M575.5014461745839,349.19251632165276 L565.9489152453434,346.7979880654157 M565.9489152453434,346.7979880654157 L556.1388173927476,344.5464946187346 M556.1388173927476,344.5464946187346 L546.0888355922739,342.44020400731756 M546.0888355922739,342.44020400731756 L535.8165266295169,340.4810984264449 M535.8165266295169,340.4810984264449 L525.339332368152,338.67096887276 M525.339332368152,338.67096887276 L514.6746450497767,337.0114148396188 M514.6746450497767,337.0114148396188 L503.83969335712476,335.50388224500267 M503.83969335712476,335.50388224500267 L492.85163787053204,334.1496504597291 M492.85163787053204,334.1496504597291 L481.7275529081251,332.94983475726633 M481.7275529081251,332.94983475726633 L470.48437528434664,331.9054187382995 M470.48437528434664,331.9054187382995 L459.13898669629623,331.0172396853268 M459.13898669629623,331.0172396853268 L447.70821427731323,330.28599001987857 M447.70821427731323,330.28599001987857 L436.20880600324404,329.7122430380152 M436.20880600324404,329.7122430380152 L424.65743329389073,329.2964426743798 M424.65743329389073,329.2964426743798 L413.0707538049779,329.0389004713317 M413.0707538049779,329.0389004713317 L401.4653894143937,328.9398167162323 M401.4653894143937,328.9398167162323 L389.8579537615189,328.9992721968719 M389.8579537615189,328.9992721968719 L378.2650525828436,329.2172099021801 M378.2650525828436,329.2172099021801 L366.7032833252638,329.5934708318584 M366.7032833252638,329.5934708318584 L355.18932111348204,330.1277683614779 M355.18932111348204,330.1277683614779 L343.7398246099944,330.81968889050177 M343.7398246099944,330.81968889050177 L332.3715200037238,331.6686974403695 M332.3715200037238,331.6686974403695 L321.10121274627676,332.67412888721145 M321.10121274627676,332.67412888721145 L309.94576204041783,333.83517979912824 M309.94576204041783,333.83517979912824 L298.9221104595182,335.1509074204109 M298.9221104595182,335.1509074204109 L288.0472785476661,336.6202283683023 M288.0472785476661,336.6202283683023 L277.33840252396567,338.2419028422509 M277.33840252396567,338.2419028422509 L266.81271286353984,340.01453374584435 M266.81271286353984,340.01453374584435 L256.4875577343934,341.9365590768122 M256.4875577343934,341.9365590768122 L246.38033730822076,344.00622571957246 M246.38033730822076,344.00622571957246 L236.5086229117799,346.2216169245862 M236.5086229117799,346.2216169245862 L226.89004162415625,348.58060221934437 M226.89004162415625,348.58060221934437 L217.54231606363598,351.0808494223909 M217.54231606363598,351.0808494223909 L208.4832676437187,353.719811389756 M208.4832676437187,353.719811389756 L199.73077069264346,356.49470742193034 M199.73077069264346,356.49470742193034 L191.30276404653534,359.40251973446937 M191.30276404653534,359.40251973446937 L183.21716975109808,362.43996288134196 M183.21716975109808,362.43996288134196 L175.49198386470349,365.6035043904931 M175.49198386470349,365.6035043904931 L168.14511695640368,368.8893174795429 M168.14511695640368,368.8893174795429 L161.19445257059286,372.2932893557555 M161.19445257059286,372.2932893557555 L154.6577670105829,375.8110069419732 M154.6577670105829,375.8110069419732 L148.55269438110767,379.4377270379936 M148.55269438110767,379.4377270379936 L142.89667395171188,383.16840257579867 M142.89667395171188,383.16840257579867 L137.70689675060572,386.9976186724726 M137.70689675060572,386.9976186724726 L133.00026548881038,390.9196297476999 M133.00026548881038,390.9196297476999 L128.79328510039716,394.9283260764481 M128.79328510039716,394.9283260764481 L125.10206045304915,399.01723078704856 M125.10206045304915,399.01723078704856 L121.94212427369882,403.17949052915355 M121.94212427369882,403.17949052915355 L119.32849714293269,407.40788062721094 M119.32849714293269,407.40788062721094 L117.27542566396357,411.69478324475045 M117.27542566396357,411.69478324475045 L115.7964566046046,416.0322068129304 M115.7964566046046,416.0322068129304 L114.90422543150316,420.41176269632496 M114.90422543150316,420.41176269632496 L114.61042712855533,424.82469798273826 M114.61042712855533,424.82469798273826 L114.92567680075769,429.26188561829974 M114.92567680075769,429.26188561829974 L115.85941645226643,433.7138306449922 M115.85941645226643,433.7138306449922 L117.41985055967154,438.1706795911109 M117.41985055967154,438.1706795911109 L119.61371898858619,442.6222621094114 M119.61371898858619,442.6222621094114 L122.446344169459,447.0580769068804 M122.446344169459,447.0580769068804 L125.92138754258849,451.4673501939632 M125.92138754258849,451.4673501939632 L130.0408661506532,455.8390172194965 M130.0408661506532,455.8390172194965 L134.80492209657962,460.1618089960828 M134.80492209657962,460.1618089960828 L140.21182733760617,464.4242496634863 M140.21182733760617,464.4242496634863 L146.2578563561473,468.6146973203503 M146.2578563561473,468.6146973203503 L152.93720704216744,472.72140721862127 M152.93720704216744,472.72140721862127 L160.24188756994351,476.73256994447274 M160.24188756994351,476.73256994447274 L168.1617335898763,480.63634690333413 M168.1617335898763,480.63634690333413 L176.6842874174512,484.4209477666564 M176.6842874174512,484.4209477666564 L185.79475587956333,488.0746837480441 M185.79475587956333,488.0746837480441 L195.47602822602113,491.5860148395783 M195.47602822602113,491.5860148395783 L205.70866889196805,494.94361217672576 M205.70866889196805,494.94361217672576 L216.47088708433225,498.1364362369394 M216.47088708433225,498.1364362369394 L227.7385508599481,501.15380038060005 M227.7385508599481,501.15380038060005 L239.48530305448503,503.9854124379629 M239.48530305448503,503.9854124379629 L251.68257534928583,506.621469018095 M251.68257534928583,506.621469018095 L264.2996466312041,509.05270366397434 M264.2996466312041,509.05270366397434 L277.30380280570085,511.2704531340421 M277.30380280570085,511.2704531340421 L290.66046563627856,513.2667027509572 M290.66046563627856,513.2667027509572 L304.3332093657184,515.0341787063217 M304.3332093657184,515.0341787063217 L318.2840941004515,516.5663560108738 M318.2840941004515,516.5663560108738 L332.47369122135285,517.8575495317659 M332.47369122135285,517.8575495317659 L346.8613864680999,518.9029050875793 M346.8613864680999,518.9029050875793 L361.40546738560175,519.6984954469478 M361.40546738560175,519.6984954469478 L376.0634210498682,520.2413045413648 M376.0634210498682,520.2413045413648 L390.79214416333446,520.529267739741 M390.79214416333446,520.529267739741 L405.5481608879778,520.5612923457461 M405.5481608879778,520.5612923457461 L420.28779880842717,520.3372475572253 M420.28779880842717,520.3372475572253 L434.9675220121213,519.8579998506674 M434.9675220121213,519.8579998506674 L449.544079021478,519.1253520469604 M449.544079021478,519.1253520469604 L463.9748065484555,518.1421038213807 M463.9748065484555,518.1421038213807 L478.2177843838408,516.911950726188 M478.2177843838408,516.911950726188 L492.23208983082816,515.4395187604423 M492.23208983082816,515.4395187604423 L505.9779899420328,513.7302867552891 M505.9779899420328,513.7302867552891 L519.4171548868281,511.7905759044927 M519.4171548868281,511.7905759044927 L532.5127439850008,509.6274801265864 M532.5127439850008,509.6274801265864 L545.2297433790617,507.24883018909617 M545.2297433790617,507.24883018909617 L557.5349141354898,504.66313087417694 M557.5349141354898,504.66313087417694 L569.3970592126348,501.8795058941188 M569.3970592126348,501.8795058941188 L580.7870651164851,498.907637656649 M580.7870651164851,498.907637656649 L591.6779783299087,495.75768552751407 M591.6779783299087,495.75768552751407 L602.0451622001159,492.44026425435925 M602.0451622001159,492.44026425435925 L611.8662007623242,488.96631782118874 M611.8662007623242,488.96631782118874 L621.1210676401548,485.34710928193726 M621.1210676401548,485.34710928193726 L629.7920623625429,481.59412834051506 M629.7920623625429,481.59412834051506 L637.8638415405427,477.71904227423573 M637.8638415405427,477.71904227423573 L645.3233672767316,473.73362093302785 M645.3233672767316,473.73362093302785 L652.1598645756909,469.6496846721652 M652.1598645756909,469.6496846721652 L658.3648666045908,465.47907096918476 M658.3648666045908,465.47907096918476 L663.931982962286,461.2335326238903 M663.931982962286,461.2335326238903 L668.8569869846096,456.9247434414958 M668.8569869846096,456.9247434414958 L673.1376578998737,452.56422443327324 M673.1376578998737,452.56422443327324 L676.7736961561434,448.16331196451983 M676.7736961561434,448.16331196451983 L679.7666495819873,443.7331109822897 M679.7666495819873,443.7331109822897 L682.119781394131,439.28447475148397 M682.119781394131,439.28447475148397 L683.8379821354855,434.8279711660143 M683.8379821354855,434.8279711660143 L684.9276816512009,430.3738661973723 M684.9276816512009,430.3738661973723 L685.3967214269617,425.9320887349344 M685.3967214269617,425.9320887349344 L685.2542268527765,421.5122139248329 M685.2542268527765,421.5122139248329 L684.5105419922952,417.12347723288025 M684.5105419922952,417.12347723288025 L683.1771191210412,412.7747231710845 M683.1771191210412,412.7747231710845 L681.2663337285633,408.4744260670982 M681.2663337285633,408.4744260670982 L678.7915192268756,404.23068049322495 M678.7915192268756,404.23068049322495 L675.7667980819697,400.05119464817705 M675.7667980819697,400.05119464817705 L672.2069573146697,395.94329665406997 M672.2069573146697,395.94329665406997 L668.1274276339107,391.9139247954037 M668.1274276339107,391.9139247954037 L663.5441852754589,387.9696504735253 M663.5441852754589,387.9696504735253 L658.4736235882528,384.11668167067126 M658.4736235882528,384.11668167067126 L652.9325539531063,380.3608580026608 M652.9325539531063,380.3608580026608 L646.9381239152058,376.7076572852857 M646.9381239152058,376.7076572852857 L640.50769185982,373.1622319949678 M640.50769185982,373.1622319949678 L633.6588551418863,369.7293993090687 M633.6588551418863,369.7293993090687 L626.4093785890118,366.4136456810803 M626.4093785890118,366.4136456810803 L618.7770862650651,363.21917071946643 M618.7770862650651,363.21917071946643 L610.7799091003757,360.14986056012475 M610.7799091003757,360.14986056012475 L602.4358215511381,357.2093231375807 M602.4358215511381,357.2093231375807 L593.7627604762388,354.4009067495457 M593.7627604762388,354.4009067495457 L584.7786686385176,351.7276921994881 M584.7786686385176,351.7276921994881 L590.5635935829401,343.3263695587918 M590.5635935829401,343.3263695587918 L596.3307914846322,334.95079152271455 M596.3307914846322,334.95079152271455 L605.5913949198048,337.626284470074 M605.5913949198048,337.626284470074 L614.5512758326165,340.43382276146855 M614.5512758326165,340.43382276146855 L623.1933476501541,343.3707194330444 M623.1933476501541,343.3707194330444 L631.5004566855237,346.434057804567 M631.5004566855237,346.434057804567 L639.4553524362914,349.62069673298345 M639.4553524362914,349.62069673298345 L647.0408104483739,352.9272243024614 M647.0408104483739,352.9272243024614 L654.2395751620334,356.34997635785294 M654.2395751620334,356.34997635785294 L661.0344518125065,359.885002319941 M661.0344518125065,359.885002319941 L667.4083043471499,363.528070395523 M667.4083043471499,363.528070395523 L673.3441064744105,367.2746434451014 M673.3441064744105,367.2746434451014 L678.8250330882778,371.1198726241796 M678.8250330882778,371.1198726241796 L683.834403975042,375.0585916428032 M683.834403975042,375.0585916428032 L688.355888799793,379.0852868011071 M688.355888799793,379.0852868011071 L692.3734495751801,383.1941145396073 M692.3734495751801,383.1941145396073 L695.8714620701446,387.37888070326443 M695.8714620701446,387.37888070326443 L698.834790854369,391.63302268989406 M698.834790854369,391.63302268989406 L701.2488103062683,395.949621019645 M701.2488103062683,395.949621019645 L703.0996025492883,400.3213977913681 M703.0996025492883,400.3213977913681 L704.3738978781419,404.7406957242556 M704.3738978781419,404.7406957242556 L705.0592862353666,409.1994796554622 M705.0592862353666,409.1994796554622 L705.1442496016135,413.6893815930322 M705.1442496016135,413.6893815930322 L704.6183062396823,418.2016460435113 M704.6183062396823,418.2016460435113 L703.4720223763078,422.72716651015105 M703.4720223763078,422.72716651015105 L701.6972287559827,427.25651294183604 M701.6972287559827,427.25651294183604 L699.2870521180737,431.77992064543344 M699.2870521180737,431.77992064543344 L696.2360497929486,436.2873070763854 M696.2360497929486,436.2873070763854 L692.5402611336868,440.7683128477746 M692.5402611336868,440.7683128477746 L688.1974349514063,445.2123183508642 M688.1974349514063,445.2123183508642 L683.206974689029,449.60846831549776 M683.206974689029,449.60846831549776 L677.5701263679827,453.94569718662933 M677.5701263679827,453.94569718662933 L671.2900630069531,458.2127857286341 M671.2900630069531,458.2127857286341 L664.3719286062036,462.3983813731156 M664.3719286062036,462.3983813731156 L656.8229867748563,466.49106117495603 M656.8229867748563,466.49106117495603 L648.6525938075997,470.4793550342173 M648.6525938075997,470.4793550342173 L639.8723095783646,474.3518112058911 M639.8723095783646,474.3518112058911 L630.4959595742195,478.09705360834937 M630.4959595742195,478.09705360834937 L620.539618577477,481.7038265926878 M620.539618577477,481.7038265926878 L610.0216319726537,485.16105032474053 M610.0216319726537,485.16105032474053 L598.9626507936665,488.457896333502 M598.9626507936665,488.457896333502 L587.3856019341599,491.5838423802869 M587.3856019341599,491.5838423802869 L575.3156044297975,494.5287148835291 M575.3156044297975,494.5287148835291 L562.7799937795514,497.28278308647003 M562.7799937795514,497.28278308647003 L549.8081881618531,499.83679488407535 M549.8081881618531,499.83679488407535 L536.4316611042145,502.1820493335487 M536.4316611042145,502.1820493335487 L522.6837722954772,504.31045995764504 M522.6837722954772,504.31045995764504 L508.5996574138643,506.21457191995495 M508.5996574138643,506.21457191995495 L494.21610728507414,507.88767525292815 M494.21610728507414,507.88767525292815 L479.57142957118174,509.3238011062858 M479.57142957118174,509.3238011062858 L464.7052149906435,510.5177890579869 M464.7052149906435,510.5177890579869 L449.6581504067012,511.46531254422473 M449.6581504067012,511.46531254422473 L434.47190684385043,512.1629374030551 M434.47190684385043,512.1629374030551 L419.18887574445176,512.6081025729624 M419.18887574445176,512.6081025729624 L403.8518564701571,512.7991815983456 M403.8518564701571,512.7991815983456 L388.50404026180576,512.7354656049015 M388.50404026180576,512.7354656049015 L373.1886413506095,512.417202570837 M373.1886413506095,512.417202570837 L357.9486666137651,511.8455437813304 M357.9486666137651,511.8455437813304 L342.82675904963764,511.02259510386983 M342.82675904963764,511.02259510386983 L327.8649740047121,509.95135138063483 M327.8649740047121,509.95135138063483 L313.10450384287935,508.63570127418456 M313.10450384287935,508.63570127418456 L298.58551316412667,507.0803954278487 M298.58551316412667,507.0803954278487 L284.3469963811213,505.2909856995361 M284.3469963811213,505.2909856995361 L270.4264905687692,503.2738419418735 M270.4264905687692,503.2738419418735 L256.85999132870336,501.03603819291925 M256.85999132870336,501.03603819291925 L243.6817770155814,498.58535158920427 M243.6817770155814,498.58535158920427 L230.92425741499804,495.93019016173804 M230.92425741499804,495.93019016173804 L218.617906068879,493.07953066481696 M218.617906068879,493.07953066481696 L206.79109075925146,490.04287984861924 M206.79109075925146,490.04287984861924 L195.47008493264946,486.83018502367617 M195.47008493264946,486.83018502367617 L184.67887565120782,483.45181464021084 M184.67887565120782,483.45181464021084 L174.43926501261944,479.91844891276685 M174.43926501261944,479.91844891276685 L164.77077118157607,476.24104315868186 M164.77077118157607,476.24104315868186 L155.69058365946316,472.43077894758204 M155.69058365946316,472.43077894758204 L147.2136693130354,468.49897289359023 M147.2136693130354,468.49897289359023 L139.3526968500301,464.4570518555065 M139.3526968500301,464.4570518555065 L132.11810983201326,460.3164863553478 M132.11810983201326,460.3164863553478 L125.51824876090859,456.08871583366994 M125.51824876090859,456.08871583366994 L119.55927142978305,451.7851459006037 M119.55927142978305,451.7851459006037 L114.24534850858123,447.417061772482 M114.24534850858123,447.417061772482 L109.57865872401555,442.9956152529133 M109.57865872401555,442.9956152529133 L105.5595357856509,438.5317644672062 M105.5595357856509,438.5317644672062 L102.18654139221246,434.0362551610143 M102.18654139221246,434.0362551610143 L99.45651948261741,429.51958373555374 M99.45651948261741,429.51958373555374 L97.364819836229,424.9919647480988 M97.364819836229,424.9919647480988 L95.90522524946971,420.4633306157856 M95.90522524946971,420.4633306157856 L95.07020808426421,415.9432812621756 M95.07020808426421,415.9432812621756 L94.85096627966965,411.44108304121914 M94.85096627966965,411.44108304121914 L95.23751642789495,406.96566743041444 M95.23751642789495,406.96566743041444 L96.2188676047387,402.5256028891603 M96.2188676047387,402.5256028891603 L97.78300468248005,398.1290867410511 M97.78300468248005,398.1290867410511 L99.91711825257119,393.7839607362813 M99.91711825257119,393.7839607362813 L102.60757774731832,389.4977072236298 M102.60757774731832,389.4977072236298 L105.84011504641546,385.277409524267 M105.84011504641546,385.277409524267 L109.59981890795603,381.12981262654097 M109.59981890795603,381.12981262654097 L113.87132273932292,377.06129967563004 M113.87132273932292,377.06129967563004 L118.63878173268427,373.0778840727649 M118.63878173268427,373.0778840727649 L123.88599464165924,369.18524030378285 M123.88599464165924,369.18524030378285 L129.59644075697338,365.38871262598144 M129.59644075697338,365.38871262598144 L135.75340109690228,361.69330784212724 M135.75340109690228,361.69330784212724 L142.33989362995737,358.10371335990465 M142.33989362995737,358.10371335990465 L149.33886118562276,354.6243116997744 M149.33886118562276,354.6243116997744 L156.73312867473388,351.259197368783 M156.73312867473388,351.259197368783 L164.5054611812555,348.0121727917942 M164.5054611812555,348.0121727917942 L172.63862323303016,344.88677582843553 M172.63862323303016,344.88677582843553 L181.11535709426042,341.8862773883048 M181.11535709426042,341.8862773883048 L189.91847813588822,339.01371141760694 M189.91847813588822,339.01371141760694 L199.03085771971416,336.27187554800867 M199.03085771971416,336.27187554800867 L208.43542854874897,333.6633404083118 M208.43542854874897,333.6633404083118 L218.1152342027704,331.19046919906737 M218.1152342027704,331.19046919906737 L228.05343532196596,328.85543056094485 M228.05343532196596,328.85543056094485 L238.23329562772713,326.66019874700623 M238.23329562772713,326.66019874700623 L248.6381960038589,324.6065685060385 M248.6381960038589,324.6065685060385 L259.25167176645226,322.6961775218674 M259.25167176645226,322.6961775218674 L270.0573620065683,320.9304944744714 M270.0573620065683,320.9304944744714 L281.03905113894626,319.3108443856648 M281.03905113894626,319.3108443856648 L292.18061998136085,317.83840855927855 M292.18061998136085,317.83840855927855 L303.4660904241771,316.5142288554762 M303.4660904241771,316.5142288554762 L314.87959859514,315.33923813729757 M314.87959859514,315.33923813729757 L326.40538201099486,314.3142283125954 M326.40538201099486,314.3142283125954 L338.02774398595284,313.43988781661227 M338.02774398595284,313.43988781661227 L349.7310946396356,312.71679144624744 M349.7310946396356,312.71679144624744 L361.4999371812508,312.1454120426001 M361.4999371812508,312.1454120426001 L373.31879028984923,311.72610794808213 M373.31879028984923,311.72610794808213 L385.17221442003495,311.4591528930071 M385.17221442003495,311.4591528930071 L397.044875928368,311.3447125380372 M397.044875928368,311.3447125380372 L408.9213726033072,311.3828634059303 M408.9213726033072,311.3828634059303 L420.78633139816696,311.5735730937076 M420.78633139816696,311.5735730937076 L432.6243991236988,311.9167310990753 M432.6243991236988,311.9167310990753 L444.42017499776045,312.41211186445815 M444.42017499776045,312.41211186445815 L456.1582024348472,313.05940300206584 M456.1582024348472,313.05940300206584 L467.82300301721637,313.85818649325864 M467.82300301721637,313.85818649325864 L479.39903305227773,314.80793726914254 M479.39903305227773,314.80793726914254 L490.87063591203747,315.908035228007 M490.87063591203747,315.908035228007 L502.2221047933373,317.1577256133672 M502.2221047933373,317.1577256133672 L513.4376198257531,318.5561557968921 M513.4376198257531,318.5561557968921 L524.5012500196838,320.1023393845775 M524.5012500196838,320.1023393845775 L535.3969627460741,321.79516112824103 M535.3969627460741,321.79516112824103 L546.1085807439516,323.63337339584996 M546.1085807439516,323.63337339584996 L556.6198290786696,325.61557536215685 M556.6198290786696,325.61557536215685 L566.914267898853,327.7402232474046 M566.914267898853,327.7402232474046 L576.9753842765335,330.00559357027646 M576.9753842765335,330.00559357027646 L586.7864927525479,332.4098048972462 M586.7864927525479,332.4098048972462 L596.3307914846322,334.95079152271455 M580.2858557441446,353.2252964976124 L571.1812162656688,350.7287587493355 M571.1812162656688,350.7287587493355 L561.8017598306444,348.3713986953137 M561.8017598306444,348.3713986953137 L552.1652677842867,346.15566113187197 M552.1652677842867,346.15566113187197 L542.2893917612183,344.08379434857517 M542.2893917612183,344.08379434857517 L532.1917752003266,342.1578196665793 M532.1917752003266,342.1578196665793 L521.8899114540468,340.3795834955285 M521.8899114540468,340.3795834955285 L511.4012476683171,338.7507425791898 M511.4012476683171,338.7507425791898 L500.743130296966,337.27276896448774 M500.743130296966,337.27276896448774 L489.9327783292659,335.94699410510066 M489.9327783292659,335.94699410510066 L478.98738435184777,334.7745616464378 M478.98738435184777,334.7745616464378 L467.92400735137386,333.75647754882533 M467.92400735137386,333.75647754882533 L456.7596483982784,332.89360170821885 M456.7596483982784,332.89360170821885 L445.51124363276324,332.18665566949676 M445.51124363276324,332.18665566949676 L434.19570119210914,331.6362072769631 M434.19570119210914,331.6362072769631 L422.82981374006295,331.2427186034845 M422.82981374006295,331.2427186034845 L411.4303973913372,331.00649735597295 M411.4303973913372,331.00649735597295 L400.01423436458936,330.9277330944262 M400.01423436458936,330.9277330944262 L388.59807133784153,331.00649735597295 M388.59807133784153,331.00649735597295 L377.1986549891157,331.2427186034845 M377.1986549891157,331.2427186034845 L365.8327675370695,331.636207276963 M365.8327675370695,331.636207276963 L354.5172250964155,332.18665566949676 M354.5172250964155,332.18665566949676 L343.26882033090027,332.89360170821885 M343.26882033090027,332.89360170821885 L332.1044613778048,333.75647754882533 M332.1044613778048,333.75647754882533 L321.0410843773309,334.7745616464377 M321.0410843773309,334.7745616464377 L310.0956903999128,335.94699410510066 M310.0956903999128,335.94699410510066 L299.28533843221265,337.27276896448774 M299.28533843221265,337.27276896448774 L288.62722106086153,338.7507425791898 M288.62722106086153,338.7507425791898 L278.13855727513186,340.3795834955285 M278.13855727513186,340.3795834955285 L267.8366935288522,342.1578196665793 M267.8366935288522,342.1578196665793 L257.7390769679604,344.08379434857517 M257.7390769679604,344.08379434857517 L247.86320094489193,346.15566113187197 M247.86320094489193,346.15566113187197 L238.22670889853424,348.3713986953137 M238.22670889853424,348.3713986953137 L228.84725246350988,350.7287587493355 M228.84725246350988,350.7287587493355 L219.74261298503325,353.2252964976127 M219.74261298503325,353.2252964976127 L210.9306175274658,355.8583394328445 M210.9306175274658,355.8583394328445 L202.42912674255842,358.62497523950464 M202.42912674255842,358.62497523950464 L194.2560174952871,361.52203877868476 M194.2560174952871,361.52203877868476 L186.42922039714605,364.5461242081098 M186.42922039714605,364.5461242081098 L178.96656719043247,367.69352861248876 M178.96656719043247,367.69352861248876 L171.88588669486865,370.9602859479538 M171.88588669486865,370.9602859479538 L165.20489737107454,374.3421188158193 M165.20489737107454,374.3421188158193 L158.9411465492649,377.83444373655743 M158.9411465492649,377.83444373655743 L153.1120859160686,381.4323711651887 M153.1120859160686,381.4323711651887 L147.73484033684434,385.13065895979383 M147.73484033684434,385.13065895979383 L142.82629020009233,388.9237421981834 M142.82629020009233,388.9237421981834 L138.40296736741618,392.80569982433576 M138.40296736741618,392.80569982433576 L134.4809955969364,396.7702514912723 M134.4809955969364,396.7702514912723 L131.07594952312996,400.81074018429933 M131.07594952312996,400.81074018429933 L128.20292644427047,404.9201627432427 M128.20292644427047,404.9201627432427 L125.87629202817209,409.09111935665345 M125.87629202817209,409.09111935665345 L124.10970972560085,413.31583695746417 M124.10970972560085,413.31583695746417 L122.91604454077611,417.5861746922708 M122.91604454077611,417.5861746922708 L122.307175278037,421.89361840783624 M122.307175278037,421.89361840783624 L122.29399390477658,426.2292772468 M122.29399390477658,426.2292772468 L122.88630721515256,430.5838965985089 M122.88630721515256,430.5838965985089 L124.09259362332239,434.9478972068506 M124.09259362332239,434.9478972068506 L125.92011086921946,439.3113394098844 M125.92011086921946,439.3113394098844 L128.374608487623,443.6639802771713 M128.374608487623,443.6639802771713 L131.46030177598493,447.99528457213364 M131.46030177598493,447.99528457213364 L135.1797569030669,452.29445675456094 M135.1797569030669,452.29445675456094 L139.53385496086378,456.55044175765534 M139.53385496086378,456.55044175765534 L144.52151272609314,460.7520066157179 M144.52151272609314,460.7520066157179 L150.1398159692784,464.8877350430054 M150.1398159692784,464.8877350430054 L156.38379207108926,468.94608210876163 M156.38379207108926,468.94608210876163 L163.24634239025127,472.9154417689864 M163.24634239025127,472.9154417689864 L170.71828269797984,476.78414859295214 M170.71828269797984,476.78414859295214 L178.7881089447543,480.5405905681416 M178.7881089447543,480.5405905681416 L187.4421287669061,484.1732054900256 M187.4421287669061,484.1732054900256 L196.6643458858067,487.67057075297515 M196.6643458858067,487.67057075297515 L206.43644447754565,491.0214622090252 M206.43644447754565,491.0214622090252 L216.73778744855457,494.2149154778025 M216.73778744855457,494.2149154778025 L227.54553338107434,497.24025970052674 M227.54553338107434,497.24025970052674 L238.83449377074896,500.08724074965727 M238.83449377074896,500.08724074965727 L250.5773759521078,502.7460238661117 M250.5773759521078,502.7460238661117 L262.74471434231396,505.20729191380997 M262.74471434231396,505.20729191380997 L275.3050284563567,507.4623133627684 M275.3050284563567,507.4623133627684 L288.2249850478088,509.5029467751159 M288.2249850478088,509.5029467751159 L301.4693855138231,511.32178081712124 M301.4693855138231,511.32178081712124 L315.00147060917396,512.9121207980097 M315.00147060917396,512.9121207980097 L328.78299313035603,514.2680590389573 M328.78299313035603,514.2680590389573 L342.774416404132,515.384514501345 M342.774416404132,515.384514501345 L356.93506895775164,516.2573021418261 M356.93506895775164,516.2573021418261 L371.22348002142877,516.8830946553644 M371.22348002142877,516.8830946553644 L385.5974240425856,517.2595292456543 M385.5974240425856,517.2595292456543 L400.0142343645893,517.3851717252828 M400.0142343645893,517.3851717252828 L414.4310446865931,517.2595292456543 M414.4310446865931,517.2595292456543 L428.8049887077499,516.8830946553644 M428.8049887077499,516.8830946553644 L443.093399771427,516.2573021418261 M443.093399771427,516.2573021418261 L457.25405232504664,515.384514501345 M457.25405232504664,515.384514501345 L471.2454755988227,514.2680590389573 M471.2454755988227,514.2680590389573 L485.0269981200047,512.9121207980097 M485.0269981200047,512.9121207980097 L498.55908321535554,511.32178081712124 M498.55908321535554,511.32178081712124 L511.8034836813699,509.5029467751159 M511.8034836813699,509.5029467751159 L524.7234402728219,507.4623133627684 M524.7234402728219,507.4623133627684 L537.2837543868648,505.20729191380997 M537.2837543868648,505.20729191380997 L549.4510927770709,502.7460238661118 M549.4510927770709,502.7460238661118 L561.1939749584297,500.08724074965727 M561.1939749584297,500.08724074965727 L572.4829353481043,497.24025970052674 M572.4829353481043,497.24025970052674 L583.2906812806241,494.2149154778025 M583.2906812806241,494.2149154778025 L593.592024251633,491.0214622090253 M593.592024251633,491.0214622090253 L603.3641228433719,487.67057075297515 M603.3641228433719,487.67057075297515 L612.586339962274,484.1732054900251 M612.586339962274,484.1732054900251 L621.2403597844243,480.5405905681416 M621.2403597844243,480.5405905681416 L629.3101860311988,476.7841485929522 M629.3101860311988,476.7841485929522 L636.7821263389274,472.9154417689865 M636.7821263389274,472.9154417689865 L643.6446766580895,468.94608210876163 M643.6446766580895,468.94608210876163 L649.8886527599002,464.88773504300553 M649.8886527599002,464.88773504300553 L655.5069560030854,460.7520066157179 M655.5069560030854,460.7520066157179 L660.4946137683148,456.55044175765534 M660.4946137683148,456.55044175765534 L664.8487118261118,452.29445675456094 M664.8487118261118,452.29445675456094 L668.5681669531937,447.99528457213376 M668.5681669531937,447.99528457213376 L671.6538602415557,443.66398027717133 M671.6538602415557,443.66398027717133 L674.1083578599593,439.3113394098844 M674.1083578599593,439.3113394098844 L675.9358751058562,434.9478972068506 M675.9358751058562,434.9478972068506 L677.142161514026,430.5838965985089 M677.142161514026,430.5838965985089 L677.734474824402,426.2292772468001 M677.734474824402,426.2292772468001 L677.7212934511417,421.89361840783624 M677.7212934511417,421.89361840783624 L677.1124241884024,417.5861746922709 M677.1124241884024,417.5861746922709 L675.9187590035777,413.31583695746417 M675.9187590035777,413.31583695746417 L674.1521767010066,409.0911193566535 M674.1521767010066,409.0911193566535 L671.8255422849082,404.9201627432427 M671.8255422849082,404.9201627432427 L668.9525192060486,400.81074018429933 M668.9525192060486,400.81074018429933 L665.5474731322422,396.7702514912724 M665.5474731322422,396.7702514912724 L661.6255013617624,392.8056998243359 M661.6255013617624,392.8056998243359 L657.2021785290863,388.9237421981834 M657.2021785290863,388.9237421981834 L652.2936283923342,385.13065895979395 M652.2936283923342,385.13065895979395 L646.9163828131101,381.4323711651887 M646.9163828131101,381.4323711651887 L641.0873221799138,377.83444373655743 M641.0873221799138,377.83444373655743 L634.8235713581041,374.34211881581933 M634.8235713581041,374.34211881581933 L628.14258203431,370.9602859479538 M628.14258203431,370.9602859479538 L621.0619015387462,367.6935286124888 M621.0619015387462,367.6935286124888 L613.5992483320326,364.5461242081098 M613.5992483320326,364.5461242081098 L605.7724512338916,361.52203877868476 M605.7724512338916,361.52203877868476 L597.5993419866202,358.62497523950464 M597.5993419866202,358.62497523950464 L589.0978512017128,355.8583394328445 M589.0978512017128,355.8583394328445 L580.2858557441446,353.2252964976124 M580.6567850062423,340.08237048111835 L589.4883167479173,342.6734015464667 M589.4883167479173,342.6734015464667 L598.0089057182014,345.3959353135509 M598.0089057182014,345.3959353135509 L606.2006383607487,348.24686316792236 M606.2006383607487,348.24686316792236 L614.045545521897,351.2228397034687 M614.045545521897,351.2228397034687 L621.5257552887895,354.32022720449964 M621.5257552887895,354.32022720449964 L628.6233968078861,357.5351290011402 M628.6233968078861,357.5351290011402 L635.320707870078,360.8633419577078 M635.320707870078,360.8633419577078 L641.60009577732,364.30036160729725 M641.60009577732,364.30036160729725 L647.444061670701,367.84138210964176 M647.444061670701,367.84138210964176 L652.8354321546194,371.4812503953201 M652.8354321546194,371.4812503953201 L657.7572767995619,375.21449544733645 M657.7572767995619,375.21449544733645 L662.1930124071687,379.0352954095241 M662.1930124071687,379.0352954095241 L666.1264627450626,382.9374744115222 M666.1264627450626,382.9374744115222 L669.5419999111137,386.9144853963595 M669.5419999111137,386.9144853963595 L672.4244724817473,390.95944009361165 M672.4244724817473,390.95944009361165 L674.7594604136583,395.06505923733596 M674.7594604136583,395.06505923733596 L676.5332456954241,399.22369552415404 M676.5332456954241,399.22369552415404 L677.7329089247787,403.4273389292145 M677.7329089247787,403.4273389292145 L678.3465176306813,407.667611213137 M678.3465176306813,407.667611213137 L678.363127087317,411.9357625069954 M678.363127087317,411.9357625069954 L677.7728790789438,416.2226840009077 M677.7728790789438,416.2226840009077 L676.5672459101041,420.51894638950046 M676.5672459101041,420.51894638950046 L674.7389226699954,424.81476461859893 M674.7389226699954,424.81476461859893 L672.282115725714,429.10005409309804 M672.282115725714,429.10005409309804 L669.1925691051183,433.364441436622 M669.1925691051183,433.364441436622 L665.4676799738103,437.5972959748569 M665.4676799738103,437.5972959748569 L661.1065349748683,441.7877304853661 M661.1065349748683,441.7877304853661 L656.1101905000834,445.9246815630555 M656.1101905000834,445.9246815630555 L650.4815393890701,449.99690429158693 M650.4815393890701,449.99690429158693 L644.2255392127756,453.993026097397 M644.2255392127756,453.993026097397 L637.3492804376066,457.90161327933276 M637.3492804376066,457.90161327933276 L629.861946209034,461.7111727554085 M629.861946209034,461.7111727554085 L621.7750475215286,465.4102632014405 M621.7750475215286,465.4102632014405 L613.1022916748884,468.9874915700651 M613.1022916748884,468.9874915700651 L603.8596984659368,472.4316015960956 M603.8596984659368,472.4316015960956 L594.0656161176227,475.731531856764 M594.0656161176227,475.731531856764 L583.7407232323372,478.87647625776674 M583.7407232323372,478.87647625776674 L572.9079117271963,481.8559173918912 M572.9079117271963,481.8559173918912 L561.5924301132113,484.65974800447907 M561.5924301132113,484.65974800447907 L549.8216400250475,487.27827372415396 M549.8216400250475,487.27827372415396 L537.6250851927547,489.7023099647655 M537.6250851927547,489.7023099647655 L525.0343330075467,491.92324901918374 M525.0343330075467,491.92324901918374 L512.0828118682148,493.9330646152756 M512.0828118682148,493.9330646152756 L498.8058236896933,495.72444994749577 M498.8058236896933,495.72444994749577 L485.24023819706656,497.29080454957943 M485.24023819706656,497.29080454957943 L471.42441980349065,498.62630372278784 M471.42441980349065,498.62630372278784 L457.39802830693117,499.7259376777218 M457.39802830693117,499.7259376777218 L443.2018634715023,500.58557994280227 M443.2018634715023,500.58557994280227 L428.8775282627333,501.2019497670723 M428.8775282627333,501.2019497670723 L414.46738379078516,501.5727173493804 M414.46738379078516,501.5727173493804 L400.0142343645893,501.6964685281751 M400.0142343645893,501.6964685281751 L385.56108493839355,501.5727173493804 M385.56108493839355,501.5727173493804 L371.15094046644543,501.2019497670723 M371.15094046644543,501.2019497670723 L356.8266052576763,500.58557994280227 M356.8266052576763,500.58557994280227 L342.63044042224743,499.7259376777218 M342.63044042224743,499.7259376777218 L328.604048925688,498.62630372278784 M328.604048925688,498.62630372278784 L314.78823053211204,497.29080454957943 M314.78823053211204,497.29080454957943 L301.22264503948537,495.72444994749577 M301.22264503948537,495.72444994749577 L287.9456568609638,493.9330646152756 M287.9456568609638,493.9330646152756 L274.994135721632,491.92324901918374 M274.994135721632,491.92324901918374 L262.4033835364239,489.7023099647655 M262.4033835364239,489.7023099647655 L250.20682870413114,487.2782737241539 M250.20682870413114,487.2782737241539 L238.43603861596742,484.65974800447907 M238.43603861596742,484.65974800447907 L227.12055700198238,481.8559173918912 M227.12055700198238,481.8559173918912 L216.28774549684132,478.87647625776674 M216.28774549684132,478.87647625776674 L205.96285261155606,475.7315318567639 M205.96285261155606,475.7315318567639 L196.16877026324178,472.4316015960955 M196.16877026324178,472.4316015960955 L186.9261770542901,468.9874915700651 M186.9261770542901,468.9874915700651 L178.25342120765006,465.4102632014405 M178.25342120765006,465.4102632014405 L170.16652252014455,461.7111727554085 M170.16652252014455,461.7111727554085 L162.67918829157202,457.90161327933276 M162.67918829157202,457.90161327933276 L155.80292951640303,453.993026097397 M155.80292951640303,453.993026097397 L149.54692934010848,449.99690429158693 M149.54692934010848,449.99690429158693 L143.91827822909522,445.9246815630555 M143.91827822909522,445.9246815630555 L138.92193375431037,441.7877304853661 M138.92193375431037,441.7877304853661 L134.56078875536832,437.59729597485676 M134.56078875536832,437.59729597485676 L130.8358996240603,433.3644414366219 M130.8358996240603,433.3644414366219 L127.74635300346472,429.10005409309804 M127.74635300346472,429.10005409309804 L125.28954605918324,424.81476461859893 M125.28954605918324,424.81476461859893 L123.46122281907452,420.5189463895004 M123.46122281907452,420.5189463895004 L122.25558965023481,416.2226840009077 M122.25558965023481,416.2226840009077 L121.66534164186163,411.9357625069954 M121.66534164186163,411.9357625069954 L121.68195109849734,407.6676112131369 M121.68195109849734,407.6676112131369 L122.29555980439983,403.4273389292145 M122.29555980439983,403.4273389292145 L123.49522303375448,399.22369552415404 M123.49522303375448,399.22369552415404 L125.2690083155203,395.06505923733596 M125.2690083155203,395.06505923733596 L127.60399624743127,390.95944009361165 M127.60399624743127,390.95944009361165 L130.4864688180648,386.9144853963595 M130.4864688180648,386.9144853963595 L133.90200598411604,382.9374744115222 M133.90200598411604,382.9374744115222 L137.83545632200992,379.0352954095241 M137.83545632200992,379.0352954095241 L142.27119192961686,375.21449544733645 M142.27119192961686,375.21449544733645 L147.1930365745592,371.4812503953201 M147.1930365745592,371.4812503953201 L152.5844070584777,367.84138210964164 M152.5844070584777,367.84138210964164 L158.42837295185862,364.30036160729725 M158.42837295185862,364.30036160729725 L164.7077608591006,360.8633419577078 M164.7077608591006,360.8633419577078 L171.40507192129243,357.5351290011402 M171.40507192129243,357.5351290011402 L178.50271344038921,354.32022720449953 M178.50271344038921,354.32022720449953 L185.98292320728163,351.2228397034687 M185.98292320728163,351.2228397034687 L193.8278303684299,348.24686316792236 M193.8278303684299,348.24686316792236 L202.01956301097724,345.3959353135509 M202.01956301097724,345.3959353135509 L210.54015198126137,342.6734015464667 M210.54015198126137,342.6734015464667 L219.37168372293658,340.08237048111823 M219.37168372293658,340.08237048111823 L228.49626260351815,337.62570205547604 M228.49626260351815,337.62570205547604 L237.89602824281693,335.306020378267 M237.89602824281693,335.306020378267 L247.55316758429908,333.1257256696017 M247.55316758429908,333.1257256696017 L257.4499989609424,331.08702499934566 M257.4499989609424,331.08702499934566 L267.56885025941455,329.1919023434021 M267.56885025941455,329.1919023434021 L277.89220098891775,327.4421698351376 M277.89220098891775,327.4421698351376 L288.4025781060582,325.8394532720393 M288.4025781060582,325.8394532720393 L299.08261051604967,324.38519702793656 M299.08261051604967,324.38519702793656 L309.9150557921089,323.0807074688994 M309.9150557921089,323.0807074688994 L320.8826988300747,321.92710651363893 M320.8826988300747,321.92710651363893 L331.9684591523038,320.92538096772427 M331.9684591523038,320.92538096772427 L343.1553149800505,320.0763742920194 M343.1553149800505,320.0763742920194 L354.4263101653791,319.3807942034239 M354.4263101653791,319.3807942034239 L365.76451709666964,318.83919758174295 M365.76451709666964,318.83919758174295 L377.1531242428344,318.45203763580764 M377.1531242428344,318.45203763580764 L388.57529686207016,318.21961609626345 M388.57529686207016,318.21961609626345 L400.01423436458936,318.1421188563286 M400.01423436458936,318.1421188563286 L411.4531718671085,318.21961609626345 M411.4531718671085,318.21961609626345 L422.87534448634426,318.45203763580764 M422.87534448634426,318.45203763580764 L434.2639516325091,318.83919758174306 M434.2639516325091,318.83919758174306 L445.6021585637996,319.3807942034239 M445.6021585637996,319.3807942034239 L456.8731537491282,320.0763742920194 M456.8731537491282,320.0763742920194 L468.0600095768749,320.92538096772427 M468.0600095768749,320.92538096772427 L479.14576989910404,321.92710651363893 M479.14576989910404,321.92710651363893 L490.1134129370698,323.0807074688994 M490.1134129370698,323.0807074688994 L500.94585821312904,324.38519702793656 M500.94585821312904,324.38519702793656 L511.62589062312054,325.8394532720393 M511.62589062312054,325.8394532720393 L522.1362677402609,327.4421698351377 M522.1362677402609,327.4421698351377 L532.4596184697642,329.1919023434022 M532.4596184697642,329.1919023434022 L542.5784697682363,331.08702499934566 M542.5784697682363,331.08702499934566 L552.4753011448795,333.1257256696017 M552.4753011448795,333.1257256696017 L562.1324404863617,335.306020378267 M562.1324404863617,335.306020378267 L571.5322061256605,337.62570205547604 M571.5322061256605,337.62570205547604 L580.6567850062423,340.08237048111835 M580.2858557441446,353.2252964976124 L580.6567850062423,340.08237048111835" stroke="black"  stroke-width="4"  fill="red"/>
<path d="M596.3307914846322,334.95079152271455 L597.3385766854537,302.0671336736846 M597.3385766854537,302.0671336736846 L606.6507020818359,304.6323058721048 M606.6507020818359,304.6323058721048 L615.6611137017442,307.32418501587017 M615.6611137017442,307.32418501587017 L624.3526392811362,310.1402100436068 M624.3526392811362,310.1402100436068 L632.708034817334,313.0775998865193 M632.708034817334,313.0775998865193 L640.7099545514957,316.1333584083375 M640.7099545514957,316.1333584083375 L648.3410742396901,319.3042298927173 M648.3410742396901,319.3042298927173 L655.5840335925857,322.5867167008663 M655.5840335925857,322.5867167008663 L662.4215284788411,325.97704636795555 M662.4215284788411,325.97704636795555 L668.8363087440742,329.4711764703522 M668.8363087440742,329.4711764703522 L674.8112294131629,333.0647713450325 M674.8112294131629,333.0647713450325 L680.3293425488586,336.7531958468959 M680.3293425488586,336.7531958468959 L685.3738406342618,340.5315096935365 M685.3738406342618,340.5315096935365 L689.9282626278806,344.39443856566896 M689.9282626278806,344.39443856566896 L693.9764362241225,348.33639078139754 M693.9764362241225,348.33639078139754 L697.5025999854814,352.35143724009015 M697.5025999854814,352.35143724009015 L700.4914789139215,356.43329412587883 M700.4914789139215,356.43329412587883 L702.9283057984088,360.57533383699433 M702.9283057984088,360.57533383699433 L704.7990204986213,364.7705833362284 M704.7990204986213,364.7705833362284 L706.0902103011972,369.0117038705658 M706.0902103011972,369.0117038705658 L706.7893229419345,373.2909922392708 M706.7893229419345,373.2909922392708 L706.8846996998163,377.6004238732289 M706.8846996998163,377.6004238732289 L706.3657208138725,381.9316002111751 M706.3657208138725,381.9316002111751 L705.222817843237,386.2757835835164 M705.222817843237,386.2757835835164 L703.4476921090447,390.62392343160724 M703.4476921090447,390.62392343160724 L701.033346973171,394.96664554980885 M701.033346973171,394.96664554980885 L697.9742239419163,399.2942681031216 M697.9742239419163,399.2942681031216 L694.2662552209835,403.5968409199702 M694.2662552209835,403.5968409199702 L689.907093296386,407.8641613960637 M689.907093296386,407.8641613960637 L684.8960566467935,412.08579804602215 M684.8960566467935,412.08579804602215 L679.234319683592,416.2511148656732 M679.234319683592,416.2511148656732 L672.9249986363523,420.34932571519937 M672.9249986363523,420.34932571519937 L665.9731966874784,424.3695139171038 M665.9731966874784,424.3695139171038 L658.3861544568122,428.300692809153 M658.3861544568122,428.300692809153 L650.1732237756223,432.13182816904015 M650.1732237756223,432.13182816904015 L641.3459801542348,435.8519012910779 M641.3459801542348,435.8519012910779 L631.91828602824,439.44996422347094 M631.91828602824,439.44996422347094 L621.906275082297,442.91518299325713 M621.906275082297,442.91518299325713 L611.3283743653327,446.2368910569607 M611.3283743653327,446.2368910569607 L600.2053401679233,449.4046621577567 M600.2053401679233,449.4046621577567 L588.5602285161439,452.4083633426432 M588.5602285161439,452.4083633426432 L576.4183112607129,455.2381960421652 M576.4183112607129,455.2381960421652 L563.8071008189224,457.8847868885959 M563.8071008189224,457.8847868885959 L550.7562155967966,460.3392224877496 M550.7562155967966,460.3392224877496 L537.2973524341537,462.5931194480591 M537.2973524341537,462.5931194480591 L523.4641161276181,464.6386855649668 M523.4641161276181,464.6386855649668 L509.29190814549713,466.46873666686224 M509.29190814549713,466.46873666686224 L494.8178045430999,468.0768057644086 M494.8178045430999,468.0768057644086 L480.08041604570155,469.4571397548071 M480.08041604570155,469.4571397548071 L465.1196519788505,470.6047643992683 M465.1196519788505,470.6047643992683 L449.97653120662244,471.515509018049 M449.97653120662244,471.515509018049 L434.69306838332943,472.1860629782583 M434.69306838332943,472.1860629782583 L419.3120073494392,472.6139573180468 M419.3120073494392,472.6139573180468 L403.87650541339247,472.79762399772414 M403.87650541339247,472.79762399772414 L388.4301159199274,472.73637962154896 M388.4301159199274,472.73637962154896 L373.0164156808881,472.43046322255304 M373.0164156808881,472.43046322255304 L357.6787718373223,471.88098478179404 M357.6787718373223,471.88098478179404 L342.4601830217029,471.08997445292334 M342.4601830217029,471.08997445292334 L327.4030528997103,470.0603193905768 M327.4030528997103,470.0603193905768 L312.5489118736079,468.7957682533151 M312.5489118736079,468.7957682533151 L297.9382501355174,467.3009004023578 M297.9382501355174,467.3009004023578 L283.61037334627395,465.58106726078427 M283.61037334627395,465.58106726078427 L269.60311272363526,463.6424081717515 M269.60311272363526,463.6424081717515 L255.95273967356144,461.4917407170859 M255.95273967356144,461.4917407170859 L242.69378825146424,459.1365593543151 M242.69378825146424,459.1365593543151 L229.8589024397404,456.5849656876301 M229.8589024397404,456.5849656876301 L217.4787677515223,453.8456083749777 M217.4787677515223,453.8456083749777 L205.58194047413363,450.92764556167094 M205.58194047413363,450.92764556167094 L194.19485920830493,447.8406585903602 M194.19485920830493,447.8406585903602 L183.34165171060224,444.5946329994414 M183.34165171060224,444.5946329994414 L173.04423730679488,441.19985310118926 M173.04423730679488,441.19985310118926 L163.32222768906985,437.66686645083047 M163.32222768906985,437.66686645083047 L154.19288242464992,434.00643662423334 M154.19288242464992,434.00643662423334 L145.67121632905094,430.22945533228346 M145.67121632905094,430.22945533228346 L137.76992414513165,426.3469183649047 M137.76992414513165,426.3469183649047 L130.49945482050794,422.36986142774845 M130.49945482050794,422.36986142774845 L123.86813522952565,418.3092881779662 M123.86813522952565,418.3092881779662 L117.88209084531456,414.176167446268 M117.88209084531456,414.176167446268 L112.54544350322453,409.98134999144014 M112.54544350322453,409.98134999144014 L107.86030742147432,405.73555592568516 M107.86030742147432,405.73555592568516 L103.82693797541452,401.44931679860434 M103.82693797541452,401.44931679860434 L100.44380601358523,397.1329576287682 M100.44380601358523,397.1329576287682 L97.70765333071938,392.79656142646536 M97.70765333071938,392.79656142646536 L95.61371843999655,388.44993803406555 M95.61371843999655,388.44993803406555 L94.15566408352691,384.10262390751876 M94.15566408352691,384.10262390751876 L93.32583609786582,379.76383386432497 M93.32583609786582,379.76383386432497 L93.11530030018366,375.4424601603447 M93.11530030018366,375.4424601603447 L93.51393671982385,371.1470713571946 M93.51393671982385,371.1470713571946 L94.51061504198799,366.8858854474378 M94.51061504198799,366.8858854474378 L96.09317835053105,362.66676221416895 M96.09317835053105,362.66676221416895 L98.2486747610672,358.49721832306426 M98.2486747610672,358.49721832306426 L100.9633307910641,354.3844238092332 M100.9633307910641,354.3844238092332 L104.2227364115194,350.3351642233772 M104.2227364115194,350.3351642233772 L108.01183959606482,346.35589904105933 M108.01183959606482,346.35589904105933 L112.31513540564117,342.45273927204806 M112.31513540564117,342.45273927204806 L117.11664319008497,338.63144005211996 M117.11664319008497,338.63144005211996 L122.40002909578948,334.89743038673384 M122.40002909578948,334.89743038673384 L128.1486433113738,331.2558216455031 M128.1486433113738,331.2558216455031 L134.3456419694033,327.71140078948883 M134.3456419694033,327.71140078948883 L140.97392199390134,324.2686478481765 M140.97392199390134,324.2686478481765 L148.01630996055331,320.9317499813202 M148.01630996055331,320.9317499813202 L155.45551899899695,317.7046178014139 M155.45551899899695,317.7046178014139 L163.27420711638055,314.5908816046693 M163.27420711638055,314.5908816046693 L171.45503662107308,311.59391788542143 M171.45503662107308,311.59391788542143 L179.98065217634675,308.71684716727486 M179.98065217634675,308.71684716727486 L188.83377647017315,305.96256286758023 M188.83377647017315,305.96256286758023 L197.99719284544233,303.3337320214637 M197.99719284544233,303.3337320214637 L207.45375048718853,300.8328043058965 M207.45375048718853,300.8328043058965 L217.18641399678438,298.4620308954743 M217.18641399678438,298.4620308954743 L227.17826939308404,296.2234768799326 M227.17826939308404,296.2234768799326 L237.4125098583921,294.11902150329263 M237.4125098583921,294.11902150329263 L247.87244966334018,292.15037250010425 M247.87244966334018,292.15037250010425 L258.5415613874143,290.31908766719124 M258.5415613874143,290.31908766719124 L269.40342480327763,288.6265634738879 M269.40342480327763,288.6265634738879 L280.4417683909816,287.0740594080003 M280.4417683909816,287.0740594080003 L291.64041995396394,285.6626979624178 M291.64041995396394,285.6626979624178 L302.98335128964146,284.39346877184863 M302.98335128964146,284.39346877184863 L314.4546509785554,283.267257830414 M314.4546509785554,283.267257830414 L326.03851127765694,282.28481689002524 M326.03851127765694,282.28481689002524 L337.7191921087935,281.4467994132541 M337.7191921087935,281.4467994132541 L349.4810620634147,280.7537508515872 M349.4810620634147,280.7537508515872 L361.3085843978995,280.20611986110674 M361.3085843978995,280.20611986110674 L373.1862388182088,279.8042462959514 M373.1862388182088,279.8042462959514 L385.09854769558575,279.54838986429075 M385.09854769558575,279.54838986429075 L397.03014030604237,279.4387076542539 M397.03014030604237,279.4387076542539 L408.9655772798783,279.47527228398604 M408.9655772798783,279.47527228398604 L420.889448609266,279.6580529388022 M420.889448609266,279.6580529388022 L432.78636408581076,279.986944915176 M432.78636408581076,279.986944915176 L444.64088530082347,280.4617341974615 M444.64088530082347,280.4617341974615 L456.43751718680534,281.08212450264335 M456.43751718680534,281.08212450264335 L468.1607419419108,281.84771925127376 M468.1607419419108,281.84771925127376 L479.79497515690446,282.7580201936087 M479.79497515690446,282.7580201936087 L491.3245177106623,283.8124389113542 M491.3245177106623,283.8124389113542 L502.7336186054499,285.0102588209108 M502.7336186054499,285.0102588209108 L514.0064115677029,286.3506704048495 M514.0064115677029,286.3506704048495 L525.126916765608,287.83273678026757 M525.126916765608,287.83273678026757 L536.0790501210522,289.45539837381256 M536.0790501210522,289.45539837381256 L546.8465798812427,291.2174695018949 M546.8465798812427,291.2174695018949 L557.4131735752225,293.1176183819696 M557.4131735752225,293.1176183819696 L567.7623302247349,295.1543769005875 M567.7623302247349,295.1543769005875 L577.8774723921128,297.32610533483 M577.8774723921128,297.32610533483 L587.7418460325819,299.63101314380367 M587.7418460325819,299.63101314380367 L597.3385766854537,302.0671336736846 M596.3307914846322,334.95079152271455 L586.7864927525479,332.4098048972462 M586.7864927525479,332.4098048972462 L576.9753842765335,330.00559357027646 M576.9753842765335,330.00559357027646 L566.914267898853,327.7402232474046 M566.914267898853,327.7402232474046 L556.6198290786696,325.61557536215685 M556.6198290786696,325.61557536215685 L546.1085807439516,323.63337339584996 M546.1085807439516,323.63337339584996 L535.3969627460741,321.79516112824103 M535.3969627460741,321.79516112824103 L524.5012500196838,320.1023393845775 M524.5012500196838,320.1023393845775 L513.4376198257531,318.5561557968921 M513.4376198257531,318.5561557968921 L502.2221047933373,317.1577256133672 M502.2221047933373,317.1577256133672 L490.87063591203747,315.908035228007 M490.87063591203747,315.908035228007 L479.39903305227773,314.80793726914254 M479.39903305227773,314.80793726914254 L467.82300301721637,313.85818649325864 M467.82300301721637,313.85818649325864 L456.1582024348472,313.05940300206584 M456.1582024348472,313.05940300206584 L444.42017499776045,312.41211186445815 M444.42017499776045,312.41211186445815 L432.6243991236988,311.9167310990753 M432.6243991236988,311.9167310990753 L420.78633139816696,311.5735730937076 M420.78633139816696,311.5735730937076 L408.9213726033072,311.3828634059303 M408.9213726033072,311.3828634059303 L397.044875928368,311.3447125380372 M397.044875928368,311.3447125380372 L385.17221442003495,311.4591528930071 M385.17221442003495,311.4591528930071 L373.31879028984923,311.72610794808213 M373.31879028984923,311.72610794808213 L361.4999371812508,312.1454120426001 M361.4999371812508,312.1454120426001 L349.7310946396356,312.71679144624744 M349.7310946396356,312.71679144624744 L338.02774398595284,313.43988781661227 M338.02774398595284,313.43988781661227 L326.40538201099486,314.3142283125954 M326.40538201099486,314.3142283125954 L314.87959859514,315.33923813729757 M314.87959859514,315.33923813729757 L303.4660904241771,316.5142288554762 M303.4660904241771,316.5142288554762 L292.18061998136085,317.83840855927855 M292.18061998136085,317.83840855927855 L281.03905113894626,319.3108443856648 M281.03905113894626,319.3108443856648 L270.0573620065683,320.9304944744714 M270.0573620065683,320.9304944744714 L259.25167176645226,322.6961775218674 M259.25167176645226,322.6961775218674 L248.6381960038589,324.6065685060385 M248.6381960038589,324.6065685060385 L238.23329562772713,326.66019874700623 M238.23329562772713,326.66019874700623 L228.05343532196596,328.85543056094485 M228.05343532196596,328.85543056094485 L218.1152342027704,331.19046919906737 M218.1152342027704,331.19046919906737 L208.43542854874897,333.6633404083118 M208.43542854874897,333.6633404083118 L199.03085771971416,336.27187554800867 M199.03085771971416,336.27187554800867 L189.91847813588822,339.01371141760694 M189.91847813588822,339.01371141760694 L181.11535709426042,341.8862773883048 M181.11535709426042,341.8862773883048 L172.63862323303016,344.88677582843553 M172.63862323303016,344.88677582843553 L164.5054611812555,348.0121727917942 M164.5054611812555,348.0121727917942 L156.73312867473388,351.259197368783 M156.73312867473388,351.259197368783 L149.33886118562276,354.6243116997744 M149.33886118562276,354.6243116997744 L142.33989362995737,358.10371335990465 M142.33989362995737,358.10371335990465 L135.75340109690228,361.69330784212724 M135.75340109690228,361.69330784212724 L129.59644075697338,365.38871262598144 M129.59644075697338,365.38871262598144 L123.88599464165924,369.18524030378285 M123.88599464165924,369.18524030378285 L118.63878173268427,373.0778840727649 M118.63878173268427,373.0778840727649 L113.87132273932292,377.06129967563004 M113.87132273932292,377.06129967563004 L109.59981890795603,381.12981262654097 M109.59981890795603,381.12981262654097 L105.84011504641546,385.277409524267 M105.84011504641546,385.277409524267 L102.60757774731832,389.4977072236298 M102.60757774731832,389.4977072236298 L99.91711825257119,393.7839607362813 M99.91711825257119,393.7839607362813 L97.78300468248005,398.1290867410511 M97.78300468248005,398.1290867410511 L96.2188676047387,402.5256028891603 M96.2188676047387,402.5256028891603 L95.23751642789495,406.96566743041444 M95.23751642789495,406.96566743041444 L94.85096627966965,411.44108304121914 M94.85096627966965,411.44108304121914 L95.07020808426421,415.9432812621756 M95.07020808426421,415.9432812621756 L95.90522524946971,420.4633306157856 M95.90522524946971,420.4633306157856 L97.364819836229,424.9919647480988 M97.364819836229,424.9919647480988 L99.45651948261741,429.51958373555374 M99.45651948261741,429.51958373555374 L102.18654139221246,434.0362551610143 M102.18654139221246,434.0362551610143 L105.5595357856509,438.5317644672062 M105.5595357856509,438.5317644672062 L109.57865872401555,442.9956152529133 M109.57865872401555,442.9956152529133 L114.24534850858123,447.417061772482 M114.24534850858123,447.417061772482 L119.55927142978305,451.7851459006037 M119.55927142978305,451.7851459006037 L125.51824876090859,456.08871583366994 M125.51824876090859,456.08871583366994 L132.11810983201326,460.3164863553478 M132.11810983201326,460.3164863553478 L139.3526968500301,464.4570518555065 M139.3526968500301,464.4570518555065 L147.2136693130354,468.49897289359023 M147.2136693130354,468.49897289359023 L155.69058365946316,472.43077894758204 M155.69058365946316,472.43077894758204 L164.7707711815763,476.241043158682 M164.7707711815763,476.241043158682 L174.43926501261944,479.91844891276685 M174.43926501261944,479.91844891276685 L184.67887565120782,483.45181464021084 M184.67887565120782,483.45181464021084 L195.47008493264946,486.83018502367617 M195.47008493264946,486.83018502367617 L206.79109075925146,490.04287984861924 M206.79109075925146,490.04287984861924 L218.617906068879,493.07953066481696 M218.617906068879,493.07953066481696 L230.92425741499804,495.93019016173804 M230.92425741499804,495.93019016173804 L243.6817770155814,498.58535158920427 M243.6817770155814,498.58535158920427 L256.85999132870336,501.03603819291925 M256.85999132870336,501.03603819291925 L270.4264905687692,503.2738419418735 M270.4264905687692,503.2738419418735 L284.3469963811213,505.2909856995361 M284.3469963811213,505.2909856995361 L298.58551316412667,507.0803954278487 M298.58551316412667,507.0803954278487 L313.10450384287935,508.63570127418456 M313.10450384287935,508.63570127418456 L327.8649740047121,509.95135138063483 M327.8649740047121,509.95135138063483 L342.82675904963764,511.02259510386983 M342.82675904963764,511.02259510386983 L357.9486666137651,511.8455437813304 M357.9486666137651,511.8455437813304 L373.1886413506095,512.417202570837 M373.1886413506095,512.417202570837 L388.50404026180576,512.7354656049015 M388.50404026180576,512.7354656049015 L403.8518564701571,512.7991815983456 M403.8518564701571,512.7991815983456 L419.18887574445176,512.6081025729624 M419.18887574445176,512.6081025729624 L434.47190684385043,512.1629374030551 M434.47190684385043,512.1629374030551 L449.6581504067012,511.46531254422473 M449.6581504067012,511.46531254422473 L464.7052149906435,510.5177890579869 M464.7052149906435,510.5177890579869 L479.57142957118174,509.3238011062858 M479.57142957118174,509.3238011062858 L494.21610728507414,507.88767525292815 M494.21610728507414,507.88767525292815 L508.5996574138643,506.21457191995495 M508.5996574138643,506.21457191995495 L522.6837722954772,504.31045995764504 M522.6837722954772,504.31045995764504 L536.4316611042145,502.1820493335487 M536.4316611042145,502.1820493335487 L549.8081881618531,499.83679488407535 M549.8081881618531,499.83679488407535 L562.7799937795514,497.28278308647003 M562.7799937795514,497.28278308647003 L575.3156044297975,494.5287148835291 M575.3156044297975,494.5287148835291 L587.3856019341599,491.5838423802869 M587.3856019341599,491.5838423802869 L598.9626507936665,488.457896333502 M598.9626507936665,488.457896333502 L610.0216319726537,485.16105032474053 M610.0216319726537,485.16105032474053 L620.539618577477,481.7038265926878 M620.539618577477,481.7038265926878 L630.4959595742195,478.09705360834937 M630.4959595742195,478.09705360834937 L639.8723095783646,474.3518112058911 M639.8723095783646,474.3518112058911 L648.6525938075997,470.4793550342173 M648.6525938075997,470.4793550342173 L656.8229867748563,466.49106117495603 M656.8229867748563,466.49106117495603 L664.3719286062036,462.3983813731156 M664.3719286062036,462.3983813731156 L671.2900630069531,458.2127857286341 M671.2900630069531,458.2127857286341 L677.5701263679827,453.94569718662933 M677.5701263679827,453.94569718662933 L683.206974689029,449.60846831549776 M683.206974689029,449.60846831549776 L688.1974349514063,445.2123183508642 M688.1974349514063,445.2123183508642 L692.5402611336868,440.7683128477746 M692.5402611336868,440.7683128477746 L696.2360497929486,436.2873070763854 M696.2360497929486,436.2873070763854 L699.2870521180737,431.77992064543344 M699.2870521180737,431.77992064543344 L701.6972287559827,427.25651294183604 M701.6972287559827,427.25651294183604 L703.4720223763078,422.72716651015105 M703.4720223763078,422.72716651015105 L704.6183062396823,418.2016460435113 M704.6183062396823,418.2016460435113 L705.1442496016135,413.6893815930322 M705.1442496016135,413.6893815930322 L705.0592862353666,409.1994796554622 M705.0592862353666,409.1994796554622 L704.3738978781419,404.7406957242556 M704.3738978781419,404.7406957242556 L703.0996025492883,400.3213977913681 M703.0996025492883,400.3213977913681 L701.2488103062683,395.949621019645 M701.2488103062683,395.949621019645 L698.834790854369,391.63302268989406 M698.834790854369,391.63302268989406 L695.8714620701446,387.37888070326443 M695.8714620701446,387.37888070326443 L692.3734495751801,383.1941145396073 M692.3734495751801,383.1941145396073 L688.355888799793,379.0852868011071 M688.355888799793,379.0852868011071 L683.834403975042,375.0585916428032 M683.834403975042,375.0585916428032 L678.8250330882778,371.1198726241796 M678.8250330882778,371.1198726241796 L673.3441064744105,367.2746434451014 M673.3441064744105,367.2746434451014 L667.4083043471499,363.528070395523 M667.4083043471499,363.528070395523 L661.0344518125065,359.885002319941 M661.0344518125065,359.885002319941 L654.2395751620334,356.34997635785294 M654.2395751620334,356.34997635785294 L647.0408104483739,352.9272243024614 M647.0408104483739,352.9272243024614 L639.4553524362914,349.62069673298345 M639.4553524362914,349.62069673298345 L631.5004566855237,346.434057804567 M631.5004566855237,346.434057804567 L623.1933476501541,343.3707194330444 M623.1933476501541,343.3707194330444 L614.5512758326165,340.43382276146855 M614.5512758326165,340.43382276146855 L605.5913949198048,337.626284470074 M605.5913949198048,337.626284470074 L596.3307914846322,334.95079152271455 M587.7219337702736,337.76928168754915 L578.3564330151708,335.2609611014605 M578.3564330151708,335.2609611014605 L568.716737847887,332.8909921102092 M568.716737847887,332.8909921102092 L558.820432366576,330.66166416458003 M558.820432366576,330.66166416458003 L548.6850216494166,328.5750630474056 M548.6850216494166,328.5750630474056 L538.3279131427096,326.63307610517035 M538.3279131427096,326.63307610517035 L527.7663903820434,324.8374175862624 M527.7663903820434,324.8374175862624 L517.0176544185687,323.1896214679542 M517.0176544185687,323.1896214679542 L506.0987486767958,321.6910731227 M506.0987486767958,321.6910731227 L495.0266426708869,320.3429933300624 M495.0266426708869,320.3429933300624 L483.8182045512419,319.14645449178306 M483.8182045512419,319.14645449178306 L472.49019448055975,318.1024005883997 M472.49019448055975,318.1024005883997 L461.05927763579706,317.2116296575052 M461.05927763579706,317.2116296575052 L449.5420481662625,316.47481846310905 M449.5420481662625,316.47481846310905 L437.9550656911074,315.8925160279468 M437.9550656911074,315.8925160279468 L426.3147513563069,315.46516108602424 M426.3147513563069,315.46516108602424 L414.63759238581827,315.19305391210554 M414.63759238581827,315.19305391210554 L402.93992633259387,315.0764044939837 M402.93992633259387,315.0764044939837 L391.2381901437229,315.1152888665079 M391.2381901437229,315.1152888665079 L379.548718602003,315.3096859133228 M379.548718602003,315.3096859133228 L367.8879233618834,315.65944760533637 M367.8879233618834,315.65944760533637 L356.2722124942566,316.16432236634563 M356.2722124942566,316.16432236634563 L344.71805367242547,316.82394340683294 M344.71805367242547,316.82394340683294 L333.24191583263314,317.6378091863741 M333.24191583263314,317.6378091863741 L321.8603712651715,318.60531515723426 M321.8603712651715,318.60531515723426 L310.59005012804175,319.72571869561574 M310.59005012804175,319.72571869561574 L299.4476756090632,320.99815329134697 M299.4476756090632,320.99815329134697 L288.4500568335827,322.4216117084086 M288.4500568335827,322.4216117084086 L277.61412047170904,323.9949490352526 M277.61412047170904,323.9949490352526 L266.95683903756964,325.7168554152691 M266.95683903756964,325.7168554152691 L256.49537296174447,327.5858812243207 M256.49537296174447,327.5858812243207 L246.2469500659384,329.6004029314345 M246.2469500659384,329.6004029314345 L236.2289086646807,331.7586143874593 M236.2289086646807,331.7586143874593 L226.45870673204837,334.05853378490315 M226.45870673204837,334.05853378490315 L216.95389943403615,336.4979761088819 M216.95389943403615,336.4979761088819 L207.7321466088478,339.0745561112487 M207.7321466088478,339.0745561112487 L198.81118144361858,341.78566681923843 M198.81118144361858,341.78566681923843 L190.2087926902278,344.6284683618788 M190.2087926902278,344.6284683618788 L181.9428380198591,347.5998825932974 M181.9428380198591,347.5998825932974 L174.03117564062978,350.69657484996367 M174.03117564062978,350.69657484996367 L166.49169417814377,353.9149479639273 M166.49169417814377,353.9149479639273 L159.3422247784701,357.25112492028944 M159.3422247784701,357.25112492028944 L152.60050680300589,360.7009222683431 M152.60050680300589,360.7009222683431 L146.2842243733469,364.2598791030256 M146.2842243733469,364.2598791030256 L140.4108583909882,367.92319847815327 M140.4108583909882,367.92319847815327 L134.99769814918875,371.6857623413375 M134.99769814918875,371.6857623413375 L130.06175346294236,375.5421124427356 M130.06175346294236,375.5421124427356 L125.61973175453005,379.48644634279447 M125.61973175453005,379.48644634279447 L121.68790343883711,383.51259938457395 M121.68790343883711,383.51259938457395 L118.28213704777909,387.61405784453245 M118.28213704777909,387.61405784453245 L115.41770217672689,391.7839203400655 M115.41770217672689,391.7839203400655 L113.10924013694404,396.01491884386 M113.10924013694404,396.01491884386 L111.37072089125888,400.2993982025719 M111.37072089125888,400.2993982025719 L110.21524485831998,404.6293500624535 M110.21524485831998,404.6293500624535 L109.6550823793184,408.99635402029304 M109.6550823793184,408.99635402029304 L109.70140392805621,413.3916623409355 M109.70140392805621,413.3916623409355 L110.36438431696547,417.8061186511943 M110.36438431696547,417.8061186511943 L111.65288583802771,422.2302556688624 M111.65288583802771,422.2302556688624 L113.57449907630769,426.6542353095582 M113.57449907630769,426.6542353095582 L116.1353648553852,431.067910463457 M116.1353648553852,431.067910463457 L119.3401133656971,435.46083579400585 M119.3401133656971,435.46083579400585 L123.19168257804762,439.8222877179519 M123.19168257804762,439.8222877179519 L127.6913083491786,444.141289729278 M127.6913083491786,444.141289729278 L132.83836990849966,448.4066507660433 M132.83836990849966,448.4066507660433 L138.6302555162706,452.6070158412438 M138.6302555162706,452.6070158412438 L145.06238121662395,456.73087162190933 M145.06238121662395,456.73087162190933 L152.12800909325225,460.76662339118997 M152.12800909325225,460.76662339118997 L159.81824840573978,464.7026238471136 M159.81824840573978,464.7026238471136 L168.1219317788121,468.52723495236705 M168.1219317788121,468.52723495236705 L177.0255881486849,472.2288870469553 M177.0255881486849,472.2288870469553 L186.51349849384917,475.7960994245096 M186.51349849384917,475.7960994245096 L196.56748859149585,479.2176041458772 M196.56748859149585,479.2176041458772 L207.1671220403482,482.48234618848437 M207.1671220403482,482.48234618848437 L218.2896046631332,485.57957491527384 M218.2896046631332,485.57957491527384 L229.90982815636653,488.49891632398294 M229.90982815636653,488.49891632398294 L242.00045779653186,491.2304143790713 M242.00045779653186,491.2304143790713 L254.53194129485752,493.764619541815 M254.53194129485752,493.764619541815 L267.4727045069795,496.09261605969976 M267.4727045069795,496.09261605969976 L280.78914896838415,498.2061192185953 M280.78914896838415,498.2061192185953 L294.4458250833073,500.0975197187936 M294.4458250833073,500.0975197187936 L308.405599646966,501.7599166890607 M308.405599646966,501.7599166890607 L322.62980494801525,503.1872047999097 M322.62980494801525,503.1872047999097 L337.078406445535,504.37408855508926 M337.078406445535,504.37408855508926 L351.7101596989221,505.31613935391107 M351.7101596989221,505.31613935391107 L366.4829655242116,506.0098068696236 M366.4829655242116,506.0098068696236 L381.35383717498667,506.45249661769327 M381.35383717498667,506.45249661769327 L396.2794215768516,506.6425154238172 M396.2794215768516,506.6425154238172 L411.21592418607844,506.57915762614437 M411.21592418607844,506.57915762614437 L426.11961838504055,506.26265173708777 M426.11961838504055,506.26265173708777 L440.9468681222637,505.6942067200508 M440.9468681222637,505.6942067200508 L455.6544784485101,504.8759630315306 M455.6544784485101,504.8759630315306 L470.1998588046477,503.8109922174998 M470.1998588046477,503.8109922174998 L484.5413381917945,502.5033005599992 M484.5413381917945,502.5033005599992 L498.6382542521704,500.9577420996572 M498.6382542521704,500.9577420996572 L512.4512320356046,499.1800318534443 M512.4512320356046,499.1800318534443 L525.9423336655146,497.17667285639607 M525.9423336655146,497.17667285639607 L539.0752534590065,494.9549264654129 M539.0752534590065,494.9549264654129 L551.8154390674866,492.5227455176717 M551.8154390674866,492.5227455176717 L564.1303345905703,489.88874957061 M564.1303345905703,489.88874957061 L575.989312383122,487.06211506892066 M575.989312383122,487.06211506892066 L587.363936867935,484.05255371752094 M587.363936867935,484.05255371752094 L598.2279918786782,480.8702482659946 M598.2279918786782,480.8702482659946 L608.5575175874029,477.52576383754047 M608.5575175874029,477.52576383754047 L618.3308834898095,474.03000942009453 M618.3308834898095,474.03000942009453 L627.5287842324756,470.39415418825945 M627.5287842324756,470.39415418825945 L636.1342755153621,466.6295798014217 M636.1342755153621,466.6295798014217 L644.1327657644601,462.74781849224587 M644.1327657644601,462.74781849224587 L651.5119469557686,458.76048524058814 M651.5119469557686,458.76048524058814 L658.2618108219722,454.679230011244 M658.2618108219722,454.679230011244 L664.3745240665237,450.5156762532527 M664.3745240665237,450.5156762532527 L669.8444310369832,446.28137788764525 M669.8444310369832,446.28137788764525 L674.6679855112739,441.9877906435248 M674.6679855112739,441.9877906435248 L678.8435472597763,437.6461781829187 M678.8435472597763,437.6461781829187 L682.3714403818059,433.2676322014553 M682.3714403818059,433.2676322014553 L685.25376464368,428.8630049729019 M685.25376464368,428.8630049729019 L687.4943339959891,424.4428890686498 M687.4943339959891,424.4428890686498 L689.0985245385431,420.0175839414019 M689.0985245385431,420.0175839414019 L690.0732459115063,415.59708355901034 M690.0732459115063,415.59708355901034 L690.4267034407034,411.1910346229951 M690.4267034407034,411.1910346229951 L690.1684407386214,406.8087565491262 M690.1684407386214,406.8087565491262 L689.3091559606121,402.45920141223985 M689.3091559606121,402.45920141223985 L687.8605660853895,398.1509637441154 M687.8605660853895,398.1509637441154 L685.8353862334757,393.8922400578173 M685.8353862334757,393.8922400578173 L683.2471400193872,389.690886095182 M683.2471400193872,389.690886095182 L680.1101741701866,385.554337629383 M680.1101741701866,385.554337629383 L676.4394288784924,381.4896972963379 M676.4394288784924,381.4896972963379 L672.2504960632732,377.5036558574494 M672.2504960632732,377.5036558574494 L667.5594464483103,373.60256591002826 M667.5594464483103,373.60256591002826 L662.3827907571257,369.79240774453405 M662.3827907571257,369.79240774453405 L656.7373730113977,366.0788072367947 M656.7373730113977,366.0788072367947 L650.6403781375803,362.4670492954543 M650.6403781375803,362.4670492954543 L644.1091877416137,358.9620905842622 M644.1091877416137,358.9620905842622 L637.1613727073926,355.56856554225715 M637.1613727073926,355.56856554225715 L629.8146712747357,352.2907871392052 M629.8146712747357,352.2907871392052 L622.086868970852,349.1327864089215 M622.086868970852,349.1327864089215 L613.9958319762127,346.09829893436626 M613.9958319762127,346.09829893436626 L605.5594198723346,343.19079216290936 M605.5594198723346,343.19079216290936 L596.7955062598978,340.41346990018855 M596.7955062598978,340.41346990018855 L587.7219337702736,337.76928168754915 M595.1027699315866,302.76566680283236 L604.3648206770299,305.3227295316513 M604.3648206770299,305.3227295316513 L613.3230073581606,308.00670835447403 M613.3230073581606,308.00670835447403 L621.9599384227113,310.81499188796136 M621.9599384227113,310.81499188796136 L630.2582052343209,313.7447311258831 M630.2582052343209,313.7447311258831 L638.2003481163265,316.7928424254095 M638.2003481163265,316.7928424254095 L645.7688498537457,319.9560084639896 M645.7688498537457,319.9560084639896 L652.9462635051021,323.23063194591117 M652.9462635051021,323.23063194591117 L659.7151086451215,326.6128716347702 M659.7151086451215,326.6128716347702 L666.0580753438011,330.0985794315766 M666.0580753438011,330.0985794315766 L671.957917200138,333.6833241686781 M671.957917200138,333.6833241686781 L677.397584996025,337.3623717444225 M677.397584996025,337.3623717444225 L682.3602789639698,341.1306745630667 M682.3602789639698,341.1306745630667 L686.8294411950301,344.98285185088935 M686.8294411950301,344.98285185088935 L690.7889285287417,348.9131919291859 M690.7889285287417,348.9131919291859 L694.2230060950577,352.9156389189966 M694.2230060950577,352.9156389189966 L697.1164038371219,356.9838050954121 M697.1164038371219,356.9838050954121 L699.4544708045541,361.1109305482681 M699.4544708045541,361.1109305482681 L701.2231864684595,365.289908191125 M701.2231864684595,365.289908191125 L702.4093380311531,369.5132662684685 M702.4093380311531,369.5132662684685 L703.0005102931103,373.77319350410914 M703.0005102931103,373.77319350410914 L702.9852347746988,378.06150512660616 M702.9852347746988,378.06150512660616 L702.3531427343779,382.36968348345385 M702.3531427343779,382.36968348345385 L701.0949700100889,386.68887009412254 M701.0949700100889,386.68887009412254 L699.2027206392853,391.0098759849574 M699.2027206392853,391.0098759849574 L696.6697610857095,395.32319802256717 M696.6697610857095,395.32319802256717 L693.4909167041653,399.61903888858 M693.4909167041653,399.61903888858 L689.6626078292076,403.887342149472 M689.6626078292076,403.887342149472 L685.1829167361585,408.1177808280248 M685.1829167361585,408.1177808280248 L680.0517363979924,412.29983382405413 M680.0517363979924,412.29983382405413 L674.2707882234777,416.42277355167465 M674.2707882234777,416.42277355167465 L667.84381087448,420.475734038476 M667.84381087448,420.475734038476 L660.7765821844,424.44774059547717 M660.7765821844,424.44774059547717 L653.0769530456306,428.32773530894934 M653.0769530456306,428.32773530894934 L644.755045390881,432.1046612579617 M644.755045390881,432.1046612579617 L635.823194315683,435.7674843626773 M635.823194315683,435.7674843626773 L626.295971649605,439.3052358564535 M626.295971649605,439.3052358564535 L616.1903632184047,442.70711735485867 M616.1903632184047,442.70711735485867 L605.5255684765791,445.96248935461574 M605.5255684765791,445.96248935461574 L594.3231712890135,449.06098690784705 M594.3231712890135,449.06098690784705 L582.607040622725,451.9925572306021 M582.607040622725,451.9925572306021 L570.4032675074039,454.74750514882805 M570.4032675074039,454.74750514882805 L557.7401637407713,457.3165781722128 M557.7401637407713,457.3165781722128 L544.6481697680673,459.69102464966403 M544.6481697680673,459.69102464966403 L531.1597321506813,461.862628408473 M531.1597321506813,461.862628408473 L517.3091648767371,463.8237690894736 M517.3091648767371,463.8237690894736 L503.13259379869044,465.56751186287926 M503.13259379869044,465.56751186287926 L488.66775713296136,467.0876049316889 M488.66775713296136,467.0876049316889 L473.95384506867026,468.3785633184148 M473.95384506867026,468.3785633184148 L459.0312698453033,469.4356735084728 M459.0312698453033,469.4356735084728 L443.9416074009783,470.2550760080055 M443.9416074009783,470.2550760080055 L428.72721424560973,470.8337407282972 M428.72721424560973,470.8337407282972 L413.43114855687236,471.1695395620456 M413.43114855687236,471.1695395620456 L398.0968477774528,471.2612239712273 M398.0968477774528,471.2612239712273 L382.7680462927719,471.108443120786 M382.7680462927719,471.108443120786 L367.48831794019304,470.71177604017583 M367.48831794019304,470.71177604017583 L352.3010929886361,470.0726880136976 M352.3010929886361,470.0726880136976 L337.24925948873334,469.19354413075166 M337.24925948873334,469.19354413075166 L322.37499339097013,468.0775772398489 M322.37499339097013,468.0775772398489 L307.71959555584857,466.72886371687696 M307.71959555584857,466.72886371687696 L293.3232058046473,465.15231373125187 M293.3232058046473,465.15231373125187 L279.22465339095237,463.353607351258 M279.22465339095237,463.353607351258 L265.4613162649545,461.3391659723144 M265.4613162649545,461.3391659723144 L252.0688181533279,459.1161229322796 M252.0688181533279,459.1161229322796 L239.0810868776609,456.69222783836034 M239.0810868776609,456.69222783836034 L226.5300513586287,454.07584084735976 M226.5300513586287,454.07584084735976 L214.4456294073173,451.27584895758054 M214.4456294073173,451.27584895758054 L202.85556226706865,448.3016269624006 M202.85556226706865,448.3016269624006 L191.78543132579097,445.16295025377025 M191.78543132579097,445.16295025377025 L181.25849331573482,441.86996974359374 M181.25849331573482,441.86996974359374 L171.29575305459218,438.43312044102146 M171.29575305459218,438.43312044102146 L161.91588593573522,434.8630779285309 M161.91588593573522,434.8630779285309 L153.135237069386,431.17069874046746 M153.135237069386,431.17069874046746 L144.96784113405516,427.36696554363834 M144.96784113405516,427.36696554363834 L137.42544871818245,423.46293254604586 M137.42544871818245,423.46293254604586 L130.51762038915228,419.46965551836433 M130.51762038915228,419.46965551836433 L124.25168466029243,415.3981761461688 M124.25168466029243,415.3981761461688 L118.6329134219111,411.259442945424 M118.6329134219111,411.259442945424 L113.66451337546494,407.0642958755452 M113.66451337546494,407.0642958755452 L109.34777090942828,402.82340549628185 M109.34777090942828,402.82340549628185 L105.68206067180489,398.54726682863094 M105.68206067180489,398.54726682863094 L102.66508777065815,394.24611708587724 M102.66508777065815,394.24611708587724 L100.29284694140802,389.9299680004739 M100.29284694140802,389.9299680004739 L98.55978724075624,385.6085401007243 M98.55978724075624,385.6085401007243 L97.45894631553563,381.2912539533809 M97.45894631553563,381.2912539533809 L96.98198265103139,376.98722427682526 M96.98198265103139,376.98722427682526 L97.11934424278263,372.7052230110271 M97.11934424278263,372.7052230110271 L97.86036793069525,368.453683110456 M97.86036793069525,368.453683110456 L99.19334195362262,364.2407044085142 M99.19334195362262,364.2407044085142 L101.1056861265767,360.07400115205775 M101.1056861265767,360.07400115205775 L103.58392524620797,355.9609668720378 M103.58392524620797,355.9609668720378 L106.61387950444453,351.90861199794756 M106.61387950444453,351.90861199794756 L110.18075728046506,347.92360464806194 M110.18075728046506,347.92360464806194 L114.26915606550926,344.01224829837656 M114.26915606550926,344.01224829837656 L118.86324680624978,340.1805220520424 M118.86324680624978,340.1805220520424 L123.9467368106823,336.43404247949985 M123.9467368106823,336.43404247949985 L129.50303860283304,332.7781061063777 M129.50303860283304,332.7781061063777 L135.5152529146048,329.2176869201105 M135.5152529146048,329.2176869201105 L141.96631908812043,325.75744664640007 M141.96631908812043,325.75744664640007 L148.83894871345433,322.401735316135 M148.83894871345433,322.401735316135 L156.1157548203486,319.1546206582557 M156.1157548203486,319.1546206582557 L163.77930886735,316.01989331493365 M163.77930886735,316.01989331493365 L171.81212584901596,313.00107347192926 M171.81212584901596,313.00107347192926 L180.19669601878104,310.10141975316907 M180.19669601878104,310.10141975316907 L188.9155699219532,307.32395388425874 M188.9155699219532,307.32395388425874 L197.95135016122723,304.67146780648403 M197.95135016122723,304.67146780648403 L207.28666356716678,302.14651856389685 M207.28666356716678,302.14651856389685 L216.90430548863387,299.75147825262843 M216.90430548863387,299.75147825262843 L226.7871001552179,297.4884990931139 M226.7871001552179,297.4884990931139 L236.91802340664447,295.35955691533724 M236.91802340664447,295.35955691533724 L247.2801875798668,293.3664579132916 M247.2801875798668,293.3664579132916 L257.8567820467427,291.51082423715513 M257.8567820467427,291.51082423715513 L268.6311614581472,289.7941320432793 M268.6311614581472,289.7941320432793 L279.5868035784652,288.2177118133729 M279.5868035784652,288.2177118133729 L290.7072828149526,286.782742771313 M290.7072828149526,286.782742771313 L301.97634342440625,285.4902809630286 M301.97634342440625,285.4902809630286 L313.3777802501234,284.3412513402085 M313.3777802501234,284.3412513402085 L324.89555284493974,283.33646113397697 M324.89555284493974,283.33646113397697 L336.51368163110845,282.47659981989824 M336.51368163110845,282.47659981989824 L348.2162713212212,281.76224996093066 M348.2162713212212,281.76224996093066 L359.98750476058945,281.1938887134401 M359.98750476058945,281.1938887134401 L371.81163513658805,280.7718881073606 M371.81163513658805,280.7718881073606 L383.67296911898427,280.49653203685773 M383.67296911898427,280.49653203685773 L395.55580779562155,280.367995989916 M395.55580779562155,280.367995989916 L407.4445289138187,280.38635748918983 M407.4445289138187,280.38635748918983 L419.3234684178288,280.55161317888115 M419.3234684178288,280.55161317888115 L431.1769743228692,280.8636507220676 M431.1769743228692,280.8636507220676 L442.98934587623603,281.3222713031786 M442.98934587623603,281.3222713031786 L454.74490159915786,281.92716688595186 M454.74490159915786,281.92716688595186 L466.42786279162146,282.677940168308 M466.42786279162146,282.677940168308 L478.0223953776344,283.57409532277927 M478.0223953776344,283.57409532277927 L489.5125784374983,284.6150152772642 M489.5125784374983,284.6150152772642 L500.882429799981,285.7999840063998 M500.882429799981,285.7999840063998 L512.1158637630568,287.12816533730637 M512.1158637630568,287.12816533730637 L523.196680821612,288.59859652572857 M523.196680821612,288.59859652572857 L534.1085351646726,290.21020523373886 M534.1085351646726,290.21020523373886 L544.8350347268176,291.9617588470238 M544.8350347268176,291.9617588470238 L555.3595804711772,293.851905809461 M555.3595804711772,293.851905809461 L565.6655122128908,295.8791254521377 M565.6655122128908,295.8791254521377 L575.7360020642449,298.0417488828872 M575.7360020642449,298.0417488828872 L585.5540968759441,300.3379396797916 M585.5540968759441,300.3379396797916 L595.1027699315866,302.76566680283236 M595.1027699315866,302.76566680283236 L592.6388816192085,314.4506576404513 M592.6388816192085,314.4506576404513 L590.1786055946649,326.1185150441386 M590.1786055946649,326.1185150441386 L587.7219337702736,337.76928168754915" stroke="black"  stroke-width="4"  fill="red"/></svg>